<svg width="40" height="40" viewBox="0 0 40 40" fill="none" xmlns="http://www.w3.org/2000/svg">
<rect width="40" height="40" fill="#13EC5B"/>
<path d="M26.9844 9.73438L22.0156 14.75V25.7656L26.9844 21.2656V9.73438V9.73438M8.98438 14.75V29.4219C8.98438 29.5469 9.03906 29.6562 9.14844 29.75C9.25781 29.8438 9.375 29.8906 9.5 29.8906C9.5625 29.8906 9.60938 29.8828 9.64062 29.8672C9.67188 29.8516 9.70312 29.8438 9.73438 29.8438C10.4219 29.5312 11.2031 29.2734 12.0781 29.0703C12.9531 28.8672 13.7656 28.7656 14.5156 28.7656C15.4844 28.7656 16.4609 28.875 17.4453 29.0938C18.4297 29.3125 19.2812 29.7031 20 30.2656V14.75C19.2812 14.1875 18.4297 13.7969 17.4453 13.5781C16.4609 13.3594 15.4844 13.25 14.5156 13.25C13.5156 13.25 12.5312 13.3594 11.5625 13.5781C10.5938 13.7969 9.73438 14.1875 8.98438 14.75V14.75M31.0156 28.25V14.75C30.7031 14.5312 30.3828 14.3438 30.0547 14.1875C29.7266 14.0312 29.375 13.8906 29 13.7656V27.2656C28.4375 27.0781 27.8672 26.9453 27.2891 26.8672C26.7109 26.7891 26.1094 26.75 25.4844 26.75C24.9219 26.75 24.3047 26.8125 23.6328 26.9375C22.9609 27.0625 22.2969 27.2422 21.6406 27.4766C20.9844 27.7109 20.4375 27.9688 20 28.25V30.2656C20.4375 29.9844 20.9844 29.7266 21.6406 29.4922C22.2969 29.2578 22.9609 29.0781 23.6328 28.9531C24.3047 28.8281 24.9219 28.7656 25.4844 28.7656C26.3281 28.7656 27.1562 28.8438 27.9688 29C28.7812 29.1562 29.5469 29.4219 30.2656 29.7969C30.3281 29.8281 30.4062 29.8438 30.5 29.8438C30.625 29.8438 30.7422 29.7891 30.8516 29.6797C30.9609 29.5703 31.0156 29.4531 31.0156 29.3281V28.25V28.25" fill="#102216"/>
</svg>
